<svg width="605" height="122" viewBox="0 0 605 122" fill="none" xmlns="http://www.w3.org/2000/svg">
<g clip-path="url(#clip0_469_3783)">
<path d="M16.6671 77.922L44.1723 6.53296H69.6692L64.9484 18.7678H105.543L110.263 6.53296H134.133L106.616 77.922H16.6671Z" fill="black"/>
<path d="M14.3009 84.0393H38.5743L32.6069 99.5406H134.191L125.857 121.159H0L14.3009 84.0393Z" fill="black"/>
<path d="M146.772 6.53296H170.029L160.438 31.4181H172.661L164.177 53.4408H151.954L140.158 84.0394H116.912L146.772 6.53296Z" fill="black"/>
<path d="M184.33 19.1717L189.201 6.53293H221.427L223.943 0H248.99L246.474 6.53293H279.358L274.487 19.1717H184.33Z" fill="black"/>
<path d="M289.965 6.53296H315.266L309.287 22.0342H321.118L313.338 42.2217H301.911L295.24 59.5582H269.535L289.965 6.53296Z" fill="black"/>
<path d="M167.351 63.2285H294.224L280.397 99.1365H178.813L176.378 105.462H277.961L272.375 119.936H145.502L159.33 84.0392H260.105L261.675 79.9648H160.911L167.351 63.2285Z" fill="black"/>
<path d="M173.815 42.2218C173.815 42.2218 177.832 26.5127 196.888 24.6775H258.893C258.893 24.6775 273.206 26.7205 267.227 42.2218C267.227 42.2218 261.248 57.723 246.566 57.723H180.475C180.475 57.723 167.952 57.9308 173.804 42.2218H173.815Z" fill="black"/>
<path d="M324.696 26.5126H338.57L287.068 119.936H311.538L363.455 26.5126H379.36L359.68 119.936H382.523L404.649 26.5126H418.523L426.233 6.53296L332.475 6.3252L324.696 26.5126Z" fill="black"/>
<path d="M434.798 6.53296H459.683L415.984 119.936H391.099L434.798 6.53296Z" fill="black"/>
<path d="M476.488 6.3252H603.765L595.674 27.3321H493.248L480.828 59.5582H583.254L575.394 79.9649H524.4L517.406 98.1094H568.815L560.401 119.936H432.708L440.569 99.5406H491.159L498.776 79.7572L448.429 79.1454L476.488 6.3252Z" fill="black"/>
<path d="M56.511 41.2061H96.4934L89.4988 59.3621H49.5164L56.511 41.2061Z" fill="white"/>
<path d="M200.836 41.4252C200.836 41.4252 201.24 37.9394 209.827 37.5239H238.267C238.267 37.5239 245.02 37.9741 243.692 41.4252C243.692 41.4252 242.365 44.8648 235.624 44.8648H205.314C205.314 44.8648 199.589 44.911 200.836 41.4252Z" fill="white"/>
<path d="M500.012 78.8453L449.653 78.2336L477.712 5.41333H605L596.909 26.4203H494.483L482.063 58.6463H584.489L576.629 79.0415H525.635" fill="#0A0A0A"/>
<path d="M568.826 68.2033H563.055C562.097 68.2033 561.324 67.4299 561.324 66.4719C561.324 65.5139 562.097 64.7406 563.055 64.7406H568.826C569.785 64.7406 570.558 65.5139 570.558 66.4719C570.558 67.4299 569.785 68.2033 568.826 68.2033ZM551.513 68.2033H545.742C544.784 68.2033 544.011 67.4299 544.011 66.4719C544.011 65.5139 544.784 64.7406 545.742 64.7406H551.513C552.471 64.7406 553.244 65.5139 553.244 66.4719C553.244 67.4299 552.471 68.2033 551.513 68.2033ZM534.2 68.2033H528.429C527.471 68.2033 526.697 67.4299 526.697 66.4719C526.697 65.5139 527.471 64.7406 528.429 64.7406H534.2C535.158 64.7406 535.931 65.5139 535.931 66.4719C535.931 67.4299 535.158 68.2033 534.2 68.2033ZM516.886 68.2033H511.115C510.157 68.2033 509.384 67.4299 509.384 66.4719C509.384 65.5139 510.157 64.7406 511.115 64.7406H516.886C517.844 64.7406 518.618 65.5139 518.618 66.4719C518.618 67.4299 517.844 68.2033 516.886 68.2033ZM499.573 68.2033H493.802C492.844 68.2033 492.07 67.4299 492.07 66.4719C492.07 65.5139 492.844 64.7406 493.802 64.7406H499.573C500.531 64.7406 501.304 65.5139 501.304 66.4719C501.304 67.4299 500.531 68.2033 499.573 68.2033ZM482.259 68.2033H476.488C475.53 68.2033 474.757 67.4299 474.757 66.4719C474.757 65.5139 475.53 64.7406 476.488 64.7406H482.259C483.217 64.7406 483.991 65.5139 483.991 66.4719C483.991 67.4299 483.217 68.2033 482.259 68.2033ZM464.946 68.2033H462.268L465.188 60.6085C465.535 59.7197 466.539 59.2696 467.428 59.6158C468.316 59.9621 468.766 60.9663 468.42 61.855L466.677 66.3796C466.677 66.3796 466.677 66.4373 466.677 66.4604C466.677 67.4184 465.904 68.1917 464.946 68.1917V68.2033ZM470.96 52.1941C470.752 52.1941 470.544 52.1595 470.336 52.0787C469.447 51.7324 468.997 50.7283 469.344 49.8395L471.421 44.4493C471.767 43.5605 472.772 43.1104 473.66 43.4566C474.549 43.8029 474.999 44.8071 474.653 45.6958L472.575 51.0861C472.31 51.7786 471.652 52.1941 470.96 52.1941ZM477.181 36.0349C476.973 36.0349 476.765 36.0003 476.558 35.9195C475.669 35.5733 475.219 34.5691 475.565 33.6803L477.643 28.2901C477.989 27.4013 478.993 26.9512 479.882 27.2974C480.77 27.6437 481.221 28.6479 480.874 29.5366L478.797 34.9269C478.531 35.6194 477.873 36.0349 477.181 36.0349ZM483.402 19.8758C483.194 19.8758 482.987 19.8411 482.779 19.7603C481.89 19.4141 481.44 18.4099 481.786 17.5211L482.698 15.1665H488.319C489.277 15.1665 490.05 15.9398 490.05 16.8978C490.05 17.8559 489.277 18.6292 488.319 18.6292H485.076L485.018 18.7677C484.753 19.4602 484.095 19.8758 483.402 19.8758ZM592.2 18.6292H586.428C585.47 18.6292 584.697 17.8559 584.697 16.8978C584.697 15.9398 585.47 15.1665 586.428 15.1665H592.2C593.158 15.1665 593.931 15.9398 593.931 16.8978C593.931 17.8559 593.158 18.6292 592.2 18.6292ZM574.886 18.6292H569.115C568.157 18.6292 567.384 17.8559 567.384 16.8978C567.384 15.9398 568.157 15.1665 569.115 15.1665H574.886C575.844 15.1665 576.618 15.9398 576.618 16.8978C576.618 17.8559 575.844 18.6292 574.886 18.6292ZM557.573 18.6292H551.802C550.844 18.6292 550.07 17.8559 550.07 16.8978C550.07 15.9398 550.844 15.1665 551.802 15.1665H557.573C558.531 15.1665 559.304 15.9398 559.304 16.8978C559.304 17.8559 558.531 18.6292 557.573 18.6292ZM540.259 18.6292H534.488C533.53 18.6292 532.757 17.8559 532.757 16.8978C532.757 15.9398 533.53 15.1665 534.488 15.1665H540.259C541.217 15.1665 541.991 15.9398 541.991 16.8978C541.991 17.8559 541.217 18.6292 540.259 18.6292ZM522.946 18.6292H517.175C516.217 18.6292 515.443 17.8559 515.443 16.8978C515.443 15.9398 516.217 15.1665 517.175 15.1665H522.946C523.904 15.1665 524.677 15.9398 524.677 16.8978C524.677 17.8559 523.904 18.6292 522.946 18.6292ZM505.633 18.6292H499.861C498.903 18.6292 498.13 17.8559 498.13 16.8978C498.13 15.9398 498.903 15.1665 499.861 15.1665H505.633C506.591 15.1665 507.364 15.9398 507.364 16.8978C507.364 17.8559 506.591 18.6292 505.633 18.6292Z" fill="white"/>
<path d="M1.70827 75.3595L312.784 42.8564L310.199 61.3818L0.184692 92.2574L1.70827 75.3595Z" fill="white"/>
</g>
<defs>
<clipPath id="clip0_469_3783">
<rect width="605" height="121.159" fill="white"/>
</clipPath>
</defs>
</svg>
