<svg width="312" height="63" viewBox="0 0 312 63" fill="none" xmlns="http://www.w3.org/2000/svg">
<path d="M167.468 14.4886H174.645L148 63H160.66L187.52 14.4886H195.749L185.568 63H197.385L208.833 14.4886H216.011L220 4.10788L171.492 4L167.468 14.4886Z" fill="black"/>
<path d="M224.301 4H237L214.699 63H202L224.301 4Z" fill="black"/>
<path d="M245.523 4H311L306.838 14.9142H254.144L247.755 31.648H300.448L296.405 42.2385H270.171L266.572 51.6663H293.02L288.691 63H223L227.044 52.4095H253.07L256.989 42.1306L231.087 41.813L245.523 4Z" fill="black"/>
<path d="M257.934 37.8928L232 37.5771L246.45 0H312L307.833 10.8401H255.086L248.691 27.4755H301.438L297.39 38H271.129" fill="black"/>
<path d="M292.034 34H289.054C288.559 34 288.159 33.5917 288.159 33.086C288.159 32.5802 288.559 32.1719 289.054 32.1719H292.034C292.529 32.1719 292.928 32.5802 292.928 33.086C292.928 33.5917 292.529 34 292.034 34ZM283.092 34H280.112C279.617 34 279.218 33.5917 279.218 33.086C279.218 32.5802 279.617 32.1719 280.112 32.1719H283.092C283.587 32.1719 283.987 32.5802 283.987 33.086C283.987 33.5917 283.587 34 283.092 34ZM274.151 34H271.17C270.675 34 270.276 33.5917 270.276 33.086C270.276 32.5802 270.675 32.1719 271.17 32.1719H274.151C274.645 32.1719 275.045 32.5802 275.045 33.086C275.045 33.5917 274.645 34 274.151 34ZM265.209 34H262.228C261.733 34 261.334 33.5917 261.334 33.086C261.334 32.5802 261.733 32.1719 262.228 32.1719H265.209C265.703 32.1719 266.103 32.5802 266.103 33.086C266.103 33.5917 265.703 34 265.209 34ZM256.267 34H253.286C252.791 34 252.392 33.5917 252.392 33.086C252.392 32.5802 252.791 32.1719 253.286 32.1719H256.267C256.762 32.1719 257.161 32.5802 257.161 33.086C257.161 33.5917 256.762 34 256.267 34ZM247.325 34H244.344C243.849 34 243.45 33.5917 243.45 33.086C243.45 32.5802 243.849 32.1719 244.344 32.1719H247.325C247.82 32.1719 248.219 32.5802 248.219 33.086C248.219 33.5917 247.82 34 247.325 34ZM238.383 34H237L238.508 29.9904C238.687 29.5212 239.206 29.2836 239.665 29.4664C240.124 29.6492 240.356 30.1793 240.177 30.6485L239.277 33.0372C239.277 33.0372 239.277 33.0677 239.277 33.0799C239.277 33.5856 238.878 33.9939 238.383 33.9939V34ZM241.489 25.5482C241.382 25.5482 241.274 25.5299 241.167 25.4873C240.708 25.3045 240.475 24.7743 240.654 24.3051L241.727 21.4594C241.906 20.9902 242.425 20.7526 242.884 20.9354C243.343 21.1182 243.575 21.6483 243.396 22.1175L242.323 24.9632C242.186 25.3288 241.846 25.5482 241.489 25.5482ZM244.702 17.0172C244.595 17.0172 244.487 16.9989 244.38 16.9563C243.921 16.7734 243.689 16.2433 243.867 15.7741L244.94 12.9284C245.119 12.4592 245.638 12.2215 246.097 12.4044C246.556 12.5872 246.788 13.1173 246.61 13.5865L245.537 16.4322C245.399 16.7978 245.06 17.0172 244.702 17.0172ZM247.915 8.48618C247.808 8.48618 247.7 8.4679 247.593 8.42525C247.134 8.24244 246.902 7.7123 247.08 7.24309L247.551 6H250.455C250.949 6 251.349 6.40827 251.349 6.91404C251.349 7.4198 250.949 7.82807 250.455 7.82807H248.779L248.75 7.9012C248.613 8.26681 248.273 8.48618 247.915 8.48618ZM304.106 7.82807H301.125C300.63 7.82807 300.231 7.4198 300.231 6.91404C300.231 6.40827 300.63 6 301.125 6H304.106C304.601 6 305 6.40827 305 6.91404C305 7.4198 304.601 7.82807 304.106 7.82807ZM295.164 7.82807H292.183C291.689 7.82807 291.289 7.4198 291.289 6.91404C291.289 6.40827 291.689 6 292.183 6H295.164C295.659 6 296.058 6.40827 296.058 6.91404C296.058 7.4198 295.659 7.82807 295.164 7.82807ZM286.222 7.82807H283.241C282.747 7.82807 282.347 7.4198 282.347 6.91404C282.347 6.40827 282.747 6 283.241 6H286.222C286.717 6 287.116 6.40827 287.116 6.91404C287.116 7.4198 286.717 7.82807 286.222 7.82807ZM277.28 7.82807H274.3C273.805 7.82807 273.405 7.4198 273.405 6.91404C273.405 6.40827 273.805 6 274.3 6H277.28C277.775 6 278.174 6.40827 278.174 6.91404C278.174 7.4198 277.775 7.82807 277.28 7.82807ZM268.338 7.82807H265.358C264.863 7.82807 264.463 7.4198 264.463 6.91404C264.463 6.40827 264.863 6 265.358 6H268.338C268.833 6 269.232 6.40827 269.232 6.91404C269.232 7.4198 268.833 7.82807 268.338 7.82807ZM259.396 7.82807H256.416C255.921 7.82807 255.522 7.4198 255.522 6.91404C255.522 6.40827 255.921 6 256.416 6H259.396C259.891 6 260.291 6.40827 260.291 6.91404C260.291 7.4198 259.891 7.82807 259.396 7.82807Z" fill="white"/>
<path d="M0 63H64.715L69 51.9344H16.7663L19.8347 44H12.7008L7.13977 44.5494L0 63Z" fill="black"/>
<path d="M78.4444 28.437H80.639L84.8401 27.9861L89 16.9609H82.769L87.6585 4H75.8025L66 30L78.3502 28.6775L78.4444 28.437Z" fill="black"/>
<path d="M60 43H71.685L74 37L61.845 38.2093L60 43Z" fill="black"/>
<path d="M145 3.40554H128.044L129.341 0H116.426L115.129 3.40554H98.5116L96 10H142.488L145 3.40554Z" fill="black"/>
<path d="M152.505 30L153 29L140 30H152.505Z" fill="black"/>
<path d="M166 12.2499H159.869L162.967 4H149.855L143 22.269L161.681 20.2664L161.31 23H161.968L166 12.2499Z" fill="black"/>
<path d="M82.9779 41.553H135.148L134.335 43.6426H82.1592L75 62H140.688L143.58 54.5921H90.9856L92.2466 51.3574H144.841L152 33H120.614L84.944 36.5062L82.9779 41.553Z" fill="black"/>
<path d="M70 4H57.5916L55.1375 10.4097H34.0348L36.4889 4H23.2344L11 36L59.7217 30.8723L70 4ZM46.7972 31.6765H26.0125L29.6486 22.1648H50.4333L46.7972 31.6765Z" fill="black"/>
<path d="M55.5767 41L56 40L45 41H55.5767Z" fill="black"/>
<path d="M133.922 13H101.769C91.8813 13.9493 89.8044 22.0746 89.8044 22.0746C88.9904 24.2597 88.8647 25.8418 89.116 27L138.322 21.8716C141.213 14.0388 133.928 13 133.928 13H133.922ZM126.028 21.6627C126.028 21.6627 125.339 23.4418 121.844 23.4418H106.126C106.126 23.4418 103.158 23.4657 103.804 21.6627C103.804 21.6627 104.014 19.8597 108.467 19.6448H123.215C123.215 19.6448 126.716 19.8776 126.028 21.6627Z" fill="black"/>
</svg>
