<svg width="1313" height="263" viewBox="0 0 1313 263" fill="none" xmlns="http://www.w3.org/2000/svg">
<g clip-path="url(#clip0_479_1565)">
<path d="M1085.15 171.149L975.857 169.821L1036.75 11.7507H1313L1295.44 57.3504H1073.15L1046.2 127.303H1268.49L1251.43 171.575H1140.76" fill="black"/>
<path d="M1234.49 148.049H1221.97C1219.89 148.049 1218.21 146.37 1218.21 144.29C1218.21 142.211 1219.89 140.532 1221.97 140.532H1234.49C1236.57 140.532 1238.25 142.211 1238.25 144.29C1238.25 146.37 1236.57 148.049 1234.49 148.049ZM1196.92 148.049H1184.4C1182.32 148.049 1180.64 146.37 1180.64 144.29C1180.64 142.211 1182.32 140.532 1184.4 140.532H1196.92C1199 140.532 1200.68 142.211 1200.68 144.29C1200.68 146.37 1199 148.049 1196.92 148.049ZM1159.35 148.049H1146.82C1144.74 148.049 1143.06 146.37 1143.06 144.29C1143.06 142.211 1144.74 140.532 1146.82 140.532H1159.35C1161.42 140.532 1163.1 142.211 1163.1 144.29C1163.1 146.37 1161.42 148.049 1159.35 148.049ZM1121.77 148.049H1109.25C1107.17 148.049 1105.49 146.37 1105.49 144.29C1105.49 142.211 1107.17 140.532 1109.25 140.532H1121.77C1123.85 140.532 1125.53 142.211 1125.53 144.29C1125.53 146.37 1123.85 148.049 1121.77 148.049ZM1084.2 148.049H1071.67C1069.59 148.049 1067.91 146.37 1067.91 144.29C1067.91 142.211 1069.59 140.532 1071.67 140.532H1084.2C1086.28 140.532 1087.95 142.211 1087.95 144.29C1087.95 146.37 1086.28 148.049 1084.2 148.049ZM1046.62 148.049H1034.1C1032.02 148.049 1030.34 146.37 1030.34 144.29C1030.34 142.211 1032.02 140.532 1034.1 140.532H1046.62C1048.7 140.532 1050.38 142.211 1050.38 144.29C1050.38 146.37 1048.7 148.049 1046.62 148.049ZM1009.05 148.049H1003.24L1009.57 131.563C1010.33 129.633 1012.5 128.656 1014.43 129.408C1016.36 130.16 1017.34 132.339 1016.59 134.269L1012.81 144.09C1012.81 144.09 1012.81 144.215 1012.81 144.265C1012.81 146.345 1011.13 148.024 1009.05 148.024V148.049ZM1022.1 113.298C1021.65 113.298 1021.2 113.223 1020.75 113.047C1018.82 112.296 1017.84 110.116 1018.59 108.187L1023.1 96.4859C1023.85 94.5567 1026.03 93.5796 1027.96 94.3312C1029.89 95.0829 1030.87 97.2627 1030.11 99.1919L1025.61 110.892C1025.03 112.396 1023.6 113.298 1022.1 113.298ZM1035.6 78.221C1035.15 78.221 1034.7 78.1459 1034.25 77.9705C1032.32 77.2188 1031.34 75.0391 1032.09 73.1098L1036.6 61.4093C1037.35 59.48 1039.53 58.5029 1041.46 59.2546C1043.39 60.0062 1044.37 62.186 1043.62 64.1152L1039.11 75.8158C1038.53 77.319 1037.1 78.221 1035.6 78.221ZM1049.1 43.1443C1048.65 43.1443 1048.2 43.0692 1047.75 42.8938C1045.82 42.1421 1044.84 39.9624 1045.6 38.0332L1047.57 32.922H1059.77C1061.85 32.922 1063.53 34.6007 1063.53 36.6802C1063.53 38.7597 1061.85 40.4384 1059.77 40.4384H1052.73L1052.61 40.7391C1052.03 42.2424 1050.61 43.1443 1049.1 43.1443ZM1285.22 40.4384H1272.7C1270.62 40.4384 1268.94 38.7597 1268.94 36.6802C1268.94 34.6007 1270.62 32.922 1272.7 32.922H1285.22C1287.3 32.922 1288.98 34.6007 1288.98 36.6802C1288.98 38.7597 1287.3 40.4384 1285.22 40.4384ZM1247.65 40.4384H1235.12C1233.04 40.4384 1231.36 38.7597 1231.36 36.6802C1231.36 34.6007 1233.04 32.922 1235.12 32.922H1247.65C1249.72 32.922 1251.4 34.6007 1251.4 36.6802C1251.4 38.7597 1249.72 40.4384 1247.65 40.4384ZM1210.07 40.4384H1197.55C1195.47 40.4384 1193.79 38.7597 1193.79 36.6802C1193.79 34.6007 1195.47 32.922 1197.55 32.922H1210.07C1212.15 32.922 1213.83 34.6007 1213.83 36.6802C1213.83 38.7597 1212.15 40.4384 1210.07 40.4384ZM1172.5 40.4384H1159.97C1157.89 40.4384 1156.21 38.7597 1156.21 36.6802C1156.21 34.6007 1157.89 32.922 1159.97 32.922H1172.5C1174.58 32.922 1176.25 34.6007 1176.25 36.6802C1176.25 38.7597 1174.58 40.4384 1172.5 40.4384ZM1134.92 40.4384H1122.4C1120.32 40.4384 1118.64 38.7597 1118.64 36.6802C1118.64 34.6007 1120.32 32.922 1122.4 32.922H1134.92C1137 32.922 1138.68 34.6007 1138.68 36.6802C1138.68 38.7597 1137 40.4384 1134.92 40.4384ZM1097.35 40.4384H1084.82C1082.74 40.4384 1081.07 38.7597 1081.07 36.6802C1081.07 34.6007 1082.74 32.922 1084.82 32.922H1097.35C1099.43 32.922 1101.11 34.6007 1101.11 36.6802C1101.11 38.7597 1099.43 40.4384 1097.35 40.4384Z" fill="white"/>
<path d="M291.101 14.181H239.299L229.054 40.7391H140.954L151.199 14.181H95.8648L39.7537 159.824L243.156 138.578L291.101 14.181ZM194.235 128.857H107.463L122.643 89.4456H209.415L194.235 128.857Z" fill="black"/>
<path d="M0 263H273.141L291.227 216.072H70.7651L79.9082 192.346L25.1248 197.782L0 263Z" fill="black"/>
<path d="M329.778 116.004H356.306L374.717 68.1991H348.19L369.006 14.181H318.531L271.763 135.571L324.342 130.084L329.778 116.004Z" fill="black"/>
<path d="M253.727 182.424H304.177L309.162 169.496L256.683 174.732L253.727 182.424Z" fill="black"/>
<path d="M606.276 14.181H534.909L540.37 0H486.012L480.552 14.181H410.613L400.042 41.616H595.705L606.276 14.181Z" fill="black"/>
<path d="M655.223 91.6504H680.022L696.905 47.8296H671.229L684.205 14.181H629.296L595.579 101.747L653.694 95.6591L655.223 91.6504Z" fill="black"/>
<path d="M608.53 215.195L638.539 137.25H632.728L352.448 165.186L349.217 173.579H567.9L564.493 182.424H345.785L315.775 260.344H591.121L603.245 228.925H382.783L388.068 215.195H608.53Z" fill="black"/>
<path d="M579.973 91.6504C592.949 58.0018 561.888 53.5671 561.888 53.5671H427.321C385.939 57.5508 377.247 91.6504 377.247 91.6504C369.131 113.423 377.297 121.115 384.261 123.821L572.985 104.103C577.819 97.3879 580.024 91.6504 580.024 91.6504H579.973ZM528.847 89.9216C528.847 89.9216 525.967 97.3879 511.338 97.3879H445.557C445.557 97.3879 433.133 97.4881 435.838 89.9216C435.838 89.9216 436.715 82.355 455.352 81.4531H517.074C517.074 81.4531 531.728 82.4302 528.847 89.9216Z" fill="black"/>
<path d="M908.299 57.5508L925.032 14.181L721.554 13.73L704.67 57.5508H734.78L623.009 260.344H676.114L788.787 57.5508H823.305L780.596 260.344H830.169L878.189 57.5508H908.299Z" fill="black"/>
<path d="M943.619 14.181L848.781 260.344H902.788L997.626 14.181H943.619Z" fill="black"/>
<path d="M1292.76 59.3297L1310.32 13.73H1034.1L973.202 171.801L1082.47 173.128L1065.94 216.072H956.143L939.085 260.344H1216.21L1234.47 212.966H1122.9L1138.08 173.579H1248.75L1265.81 129.283H1043.52L1070.47 59.3297H1292.76Z" fill="black"/>
<path d="M1233.72 150.178H1221.19C1219.11 150.178 1217.44 148.5 1217.44 146.42C1217.44 144.341 1219.11 142.662 1221.19 142.662H1233.72C1235.8 142.662 1237.48 144.341 1237.48 146.42C1237.48 148.5 1235.8 150.178 1233.72 150.178ZM1196.14 150.178H1183.62C1181.54 150.178 1179.86 148.5 1179.86 146.42C1179.86 144.341 1181.54 142.662 1183.62 142.662H1196.14C1198.22 142.662 1199.9 144.341 1199.9 146.42C1199.9 148.5 1198.22 150.178 1196.14 150.178ZM1158.57 150.178H1146.04C1143.97 150.178 1142.29 148.5 1142.29 146.42C1142.29 144.341 1143.97 142.662 1146.04 142.662H1158.57C1160.65 142.662 1162.33 144.341 1162.33 146.42C1162.33 148.5 1160.65 150.178 1158.57 150.178ZM1120.99 150.178H1108.47C1106.39 150.178 1104.71 148.5 1104.71 146.42C1104.71 144.341 1106.39 142.662 1108.47 142.662H1120.99C1123.07 142.662 1124.75 144.341 1124.75 146.42C1124.75 148.5 1123.07 150.178 1120.99 150.178ZM1083.42 150.178H1070.9C1068.82 150.178 1067.14 148.5 1067.14 146.42C1067.14 144.341 1068.82 142.662 1070.9 142.662H1083.42C1085.5 142.662 1087.18 144.341 1087.18 146.42C1087.18 148.5 1085.5 150.178 1083.42 150.178ZM1045.85 150.178H1033.32C1031.24 150.178 1029.56 148.5 1029.56 146.42C1029.56 144.341 1031.24 142.662 1033.32 142.662H1045.85C1047.93 142.662 1049.6 144.341 1049.6 146.42C1049.6 148.5 1047.93 150.178 1045.85 150.178ZM1008.27 150.178H1002.46L1008.8 133.692C1009.55 131.763 1011.73 130.786 1013.66 131.538C1015.59 132.289 1016.56 134.469 1015.81 136.398L1012.03 146.22C1012.03 146.22 1012.03 146.345 1012.03 146.395C1012.03 148.475 1010.35 150.153 1008.27 150.153V150.178ZM1021.32 115.427C1020.87 115.427 1020.42 115.352 1019.97 115.177C1018.04 114.425 1017.06 112.245 1017.82 110.316L1022.32 98.6156C1023.08 96.6864 1025.26 95.7093 1027.18 96.4609C1029.11 97.2125 1030.09 99.3923 1029.34 101.322L1024.83 113.022C1024.25 114.525 1022.83 115.427 1021.32 115.427ZM1034.82 80.3507C1034.37 80.3507 1033.92 80.2755 1033.47 80.1001C1031.54 79.3485 1030.57 77.1687 1031.32 75.2395L1035.83 63.5389C1036.58 61.6097 1038.76 60.6326 1040.69 61.3842C1042.61 62.1358 1043.59 64.3156 1042.84 66.2448L1038.33 77.9454C1037.76 79.4487 1036.33 80.3507 1034.82 80.3507ZM1048.33 45.274C1047.88 45.274 1047.42 45.1988 1046.97 45.0234C1045.04 44.2718 1044.07 42.092 1044.82 40.1628L1046.8 35.0516H1059C1061.08 35.0516 1062.75 36.7303 1062.75 38.8099C1062.75 40.8894 1061.08 42.5681 1059 42.5681H1051.96L1051.83 42.8687C1051.26 44.372 1049.83 45.274 1048.33 45.274ZM1284.44 42.5681H1271.92C1269.84 42.5681 1268.16 40.8894 1268.16 38.8099C1268.16 36.7303 1269.84 35.0516 1271.92 35.0516H1284.44C1286.52 35.0516 1288.2 36.7303 1288.2 38.8099C1288.2 40.8894 1286.52 42.5681 1284.44 42.5681ZM1246.87 42.5681H1234.34C1232.27 42.5681 1230.59 40.8894 1230.59 38.8099C1230.59 36.7303 1232.27 35.0516 1234.34 35.0516H1246.87C1248.95 35.0516 1250.63 36.7303 1250.63 38.8099C1250.63 40.8894 1248.95 42.5681 1246.87 42.5681ZM1209.29 42.5681H1196.77C1194.69 42.5681 1193.01 40.8894 1193.01 38.8099C1193.01 36.7303 1194.69 35.0516 1196.77 35.0516H1209.29C1211.37 35.0516 1213.05 36.7303 1213.05 38.8099C1213.05 40.8894 1211.37 42.5681 1209.29 42.5681ZM1171.72 42.5681H1159.2C1157.12 42.5681 1155.44 40.8894 1155.44 38.8099C1155.44 36.7303 1157.12 35.0516 1159.2 35.0516H1171.72C1173.8 35.0516 1175.48 36.7303 1175.48 38.8099C1175.48 40.8894 1173.8 42.5681 1171.72 42.5681ZM1134.15 42.5681H1121.62C1119.54 42.5681 1117.86 40.8894 1117.86 38.8099C1117.86 36.7303 1119.54 35.0516 1121.62 35.0516H1134.15C1136.23 35.0516 1137.9 36.7303 1137.9 38.8099C1137.9 40.8894 1136.23 42.5681 1134.15 42.5681ZM1096.57 42.5681H1084.05C1081.97 42.5681 1080.29 40.8894 1080.29 38.8099C1080.29 36.7303 1081.97 35.0516 1084.05 35.0516H1096.57C1098.65 35.0516 1100.33 36.7303 1100.33 38.8099C1100.33 40.8894 1098.65 42.5681 1096.57 42.5681Z" fill="white"/>
</g>
<defs>
<clipPath id="clip0_479_1565">
<rect width="1313" height="263" fill="white"/>
</clipPath>
</defs>
</svg>
